<mxfile host="Electron" modified="2024-05-02T07:03:28.330Z" agent="Mozilla/5.0 (X11; Linux x86_64) AppleWebKit/537.36 (KHTML, like Gecko) draw.io/24.1.0 Chrome/120.0.6099.109 Electron/28.1.0 Safari/537.36" etag="WgTxUGpKyuJPa4Efp22w" version="24.1.0" type="device">
  <diagram name="Page-1" id="4pUtZLH5ktSQMZHm9LfW">
    <mxGraphModel dx="2829" dy="893" grid="1" gridSize="10" guides="1" tooltips="1" connect="1" arrows="1" fold="1" page="1" pageScale="1" pageWidth="1169" pageHeight="827" math="0" shadow="0">
      <root>
        <mxCell id="0" />
        <mxCell id="1" parent="0" />
        <mxCell id="pyzMy5RGw5Bx7dP2U261-3" style="edgeStyle=orthogonalEdgeStyle;rounded=0;orthogonalLoop=1;jettySize=auto;html=1;" edge="1" parent="1" source="pyzMy5RGw5Bx7dP2U261-1" target="pyzMy5RGw5Bx7dP2U261-2">
          <mxGeometry relative="1" as="geometry" />
        </mxCell>
        <mxCell id="pyzMy5RGw5Bx7dP2U261-1" value="PRODUCTS" style="shape=umlFrame;whiteSpace=wrap;html=1;pointerEvents=0;width=110;height=20;" vertex="1" parent="1">
          <mxGeometry x="60" y="20" width="220" height="190" as="geometry" />
        </mxCell>
        <mxCell id="pyzMy5RGw5Bx7dP2U261-2" value="&lt;h1 style=&quot;margin-top: 0px;&quot;&gt;&lt;span style=&quot;background-color: initial;&quot;&gt;PRODUCTS API&lt;/span&gt;&lt;/h1&gt;&lt;h1 style=&quot;margin-top: 0px;&quot;&gt;&lt;span style=&quot;font-size: 12px; font-weight: 400;&quot;&gt;Responsible for sending product&#39;s info on request&lt;/span&gt;&lt;/h1&gt;" style="text;html=1;whiteSpace=wrap;overflow=hidden;rounded=0;" vertex="1" parent="1">
          <mxGeometry x="-220" y="20" width="240" height="120" as="geometry" />
        </mxCell>
        <mxCell id="pyzMy5RGw5Bx7dP2U261-9" value="" style="rounded=0;whiteSpace=wrap;html=1;" vertex="1" parent="1">
          <mxGeometry x="250" y="64" width="60" height="120" as="geometry" />
        </mxCell>
        <mxCell id="pyzMy5RGw5Bx7dP2U261-8" value="" style="aspect=fixed;sketch=0;html=1;dashed=0;whitespace=wrap;fillColor=#2875E2;strokeColor=#ffffff;points=[[0.005,0.63,0],[0.1,0.2,0],[0.9,0.2,0],[0.5,0,0],[0.995,0.63,0],[0.72,0.99,0],[0.5,1,0],[0.28,0.99,0]];shape=mxgraph.kubernetes.icon2;kubernetesLabel=1;prIcon=api" vertex="1" parent="1">
          <mxGeometry x="255" y="100" width="50" height="48" as="geometry" />
        </mxCell>
        <mxCell id="pyzMy5RGw5Bx7dP2U261-10" value="front-end" style="shape=umlActor;verticalLabelPosition=bottom;verticalAlign=top;html=1;" vertex="1" parent="1">
          <mxGeometry x="460" y="88" width="30" height="60" as="geometry" />
        </mxCell>
        <mxCell id="pyzMy5RGw5Bx7dP2U261-11" value="" style="shape=providedRequiredInterface;html=1;verticalLabelPosition=bottom;sketch=0;" vertex="1" parent="1">
          <mxGeometry x="350" y="120" width="20" height="20" as="geometry" />
        </mxCell>
        <mxCell id="pyzMy5RGw5Bx7dP2U261-12" style="edgeStyle=orthogonalEdgeStyle;rounded=0;orthogonalLoop=1;jettySize=auto;html=1;entryX=0.975;entryY=0.542;entryDx=0;entryDy=0;entryPerimeter=0;" edge="1" parent="1" source="pyzMy5RGw5Bx7dP2U261-11" target="pyzMy5RGw5Bx7dP2U261-9">
          <mxGeometry relative="1" as="geometry" />
        </mxCell>
        <mxCell id="pyzMy5RGw5Bx7dP2U261-13" style="edgeStyle=orthogonalEdgeStyle;rounded=0;orthogonalLoop=1;jettySize=auto;html=1;entryX=0.376;entryY=0.771;entryDx=0;entryDy=0;entryPerimeter=0;" edge="1" parent="1" source="pyzMy5RGw5Bx7dP2U261-11" target="pyzMy5RGw5Bx7dP2U261-10">
          <mxGeometry relative="1" as="geometry">
            <Array as="points">
              <mxPoint x="461" y="130" />
            </Array>
          </mxGeometry>
        </mxCell>
        <mxCell id="pyzMy5RGw5Bx7dP2U261-14" value="Use" style="endArrow=open;endSize=12;dashed=1;html=1;rounded=0;exitX=0.364;exitY=1;exitDx=0;exitDy=0;exitPerimeter=0;" edge="1" parent="1" source="pyzMy5RGw5Bx7dP2U261-1" target="pyzMy5RGw5Bx7dP2U261-15">
          <mxGeometry width="160" relative="1" as="geometry">
            <mxPoint x="110" y="230" as="sourcePoint" />
            <mxPoint x="270" y="230" as="targetPoint" />
            <mxPoint as="offset" />
          </mxGeometry>
        </mxCell>
        <mxCell id="pyzMy5RGw5Bx7dP2U261-15" value="memcacheD" style="shape=datastore;whiteSpace=wrap;html=1;" vertex="1" parent="1">
          <mxGeometry x="100" y="290" width="80" height="60" as="geometry" />
        </mxCell>
        <mxCell id="pyzMy5RGw5Bx7dP2U261-16" value="&lt;h1 style=&quot;margin-top: 0px;&quot;&gt;Stateful data store&lt;/h1&gt;&lt;p&gt;this data store is updated frequently by the inventory manager&lt;/p&gt;" style="text;html=1;whiteSpace=wrap;overflow=hidden;rounded=0;" vertex="1" parent="1">
          <mxGeometry x="-120" y="260" width="180" height="120" as="geometry" />
        </mxCell>
        <mxCell id="pyzMy5RGw5Bx7dP2U261-17" style="edgeStyle=orthogonalEdgeStyle;rounded=0;orthogonalLoop=1;jettySize=auto;html=1;entryX=1;entryY=0.5;entryDx=0;entryDy=0;" edge="1" parent="1" source="pyzMy5RGw5Bx7dP2U261-15" target="pyzMy5RGw5Bx7dP2U261-16">
          <mxGeometry relative="1" as="geometry" />
        </mxCell>
        <mxCell id="pyzMy5RGw5Bx7dP2U261-18" value="Use" style="endArrow=open;endSize=12;dashed=1;html=1;rounded=0;" edge="1" parent="1" source="pyzMy5RGw5Bx7dP2U261-10" target="pyzMy5RGw5Bx7dP2U261-19">
          <mxGeometry width="160" relative="1" as="geometry">
            <mxPoint x="280" y="260" as="sourcePoint" />
            <mxPoint x="440" y="260" as="targetPoint" />
          </mxGeometry>
        </mxCell>
        <mxCell id="pyzMy5RGw5Bx7dP2U261-19" value="S3" style="shape=datastore;whiteSpace=wrap;html=1;" vertex="1" parent="1">
          <mxGeometry x="210" y="290" width="60" height="60" as="geometry" />
        </mxCell>
        <mxCell id="pyzMy5RGw5Bx7dP2U261-20" value="&lt;h1 style=&quot;margin-top: 0px;&quot;&gt;aws s3&lt;/h1&gt;&lt;p&gt;this is the media store related to the product, the frontend requests it via http&lt;/p&gt;" style="text;html=1;whiteSpace=wrap;overflow=hidden;rounded=0;" vertex="1" parent="1">
          <mxGeometry x="385" y="280" width="180" height="120" as="geometry" />
        </mxCell>
        <mxCell id="pyzMy5RGw5Bx7dP2U261-21" style="edgeStyle=orthogonalEdgeStyle;rounded=0;orthogonalLoop=1;jettySize=auto;html=1;entryX=0;entryY=0.333;entryDx=0;entryDy=0;entryPerimeter=0;" edge="1" parent="1" source="pyzMy5RGw5Bx7dP2U261-19" target="pyzMy5RGw5Bx7dP2U261-20">
          <mxGeometry relative="1" as="geometry" />
        </mxCell>
        <mxCell id="pyzMy5RGw5Bx7dP2U261-24" style="edgeStyle=orthogonalEdgeStyle;rounded=0;orthogonalLoop=1;jettySize=auto;html=1;" edge="1" parent="1" source="pyzMy5RGw5Bx7dP2U261-22" target="pyzMy5RGw5Bx7dP2U261-23">
          <mxGeometry relative="1" as="geometry" />
        </mxCell>
        <mxCell id="pyzMy5RGw5Bx7dP2U261-22" value="MongoDB" style="shape=datastore;whiteSpace=wrap;html=1;" vertex="1" parent="1">
          <mxGeometry x="-160" y="400" width="60" height="60" as="geometry" />
        </mxCell>
        <mxCell id="pyzMy5RGw5Bx7dP2U261-23" value="&lt;h1 style=&quot;margin-top: 0px;&quot;&gt;&lt;span style=&quot;background-color: initial;&quot;&gt;database&lt;/span&gt;&lt;/h1&gt;&lt;h1 style=&quot;margin-top: 0px;&quot;&gt;&lt;span style=&quot;font-size: 12px; font-weight: 400;&quot;&gt;mongodb is easy to use cheap soloution for data storage&lt;/span&gt;&lt;/h1&gt;" style="text;html=1;whiteSpace=wrap;overflow=hidden;rounded=0;" vertex="1" parent="1">
          <mxGeometry x="-220" y="490" width="180" height="120" as="geometry" />
        </mxCell>
        <mxCell id="pyzMy5RGw5Bx7dP2U261-33" style="edgeStyle=orthogonalEdgeStyle;rounded=0;orthogonalLoop=1;jettySize=auto;html=1;entryX=0.5;entryY=0;entryDx=0;entryDy=0;" edge="1" parent="1" source="pyzMy5RGw5Bx7dP2U261-25" target="pyzMy5RGw5Bx7dP2U261-32">
          <mxGeometry relative="1" as="geometry">
            <Array as="points">
              <mxPoint x="-20" y="535" />
              <mxPoint x="-20" y="600" />
              <mxPoint x="-60" y="600" />
              <mxPoint x="-60" y="620" />
              <mxPoint x="-80" y="620" />
            </Array>
          </mxGeometry>
        </mxCell>
        <mxCell id="pyzMy5RGw5Bx7dP2U261-25" value="SEARCH&amp;nbsp;" style="shape=umlFrame;whiteSpace=wrap;html=1;pointerEvents=0;width=110;height=20;" vertex="1" parent="1">
          <mxGeometry x="60" y="440" width="220" height="190" as="geometry" />
        </mxCell>
        <mxCell id="pyzMy5RGw5Bx7dP2U261-26" value="" style="rounded=0;whiteSpace=wrap;html=1;" vertex="1" parent="1">
          <mxGeometry x="250" y="484" width="60" height="120" as="geometry" />
        </mxCell>
        <mxCell id="pyzMy5RGw5Bx7dP2U261-27" value="" style="aspect=fixed;sketch=0;html=1;dashed=0;whitespace=wrap;fillColor=#2875E2;strokeColor=#ffffff;points=[[0.005,0.63,0],[0.1,0.2,0],[0.9,0.2,0],[0.5,0,0],[0.995,0.63,0],[0.72,0.99,0],[0.5,1,0],[0.28,0.99,0]];shape=mxgraph.kubernetes.icon2;kubernetesLabel=1;prIcon=api" vertex="1" parent="1">
          <mxGeometry x="255" y="520" width="50" height="48" as="geometry" />
        </mxCell>
        <mxCell id="pyzMy5RGw5Bx7dP2U261-28" value="front-end" style="shape=umlActor;verticalLabelPosition=bottom;verticalAlign=top;html=1;" vertex="1" parent="1">
          <mxGeometry x="460" y="508" width="30" height="60" as="geometry" />
        </mxCell>
        <mxCell id="pyzMy5RGw5Bx7dP2U261-29" value="" style="shape=providedRequiredInterface;html=1;verticalLabelPosition=bottom;sketch=0;" vertex="1" parent="1">
          <mxGeometry x="350" y="540" width="20" height="20" as="geometry" />
        </mxCell>
        <mxCell id="pyzMy5RGw5Bx7dP2U261-30" style="edgeStyle=orthogonalEdgeStyle;rounded=0;orthogonalLoop=1;jettySize=auto;html=1;entryX=0.975;entryY=0.542;entryDx=0;entryDy=0;entryPerimeter=0;" edge="1" parent="1" source="pyzMy5RGw5Bx7dP2U261-29" target="pyzMy5RGw5Bx7dP2U261-26">
          <mxGeometry relative="1" as="geometry" />
        </mxCell>
        <mxCell id="pyzMy5RGw5Bx7dP2U261-31" style="edgeStyle=orthogonalEdgeStyle;rounded=0;orthogonalLoop=1;jettySize=auto;html=1;entryX=0.376;entryY=0.771;entryDx=0;entryDy=0;entryPerimeter=0;" edge="1" parent="1" source="pyzMy5RGw5Bx7dP2U261-29" target="pyzMy5RGw5Bx7dP2U261-28">
          <mxGeometry relative="1" as="geometry">
            <Array as="points">
              <mxPoint x="461" y="550" />
            </Array>
          </mxGeometry>
        </mxCell>
        <mxCell id="pyzMy5RGw5Bx7dP2U261-32" value="&lt;h1 style=&quot;margin-top: 0px;&quot;&gt;SEACRCHING&lt;/h1&gt;&lt;p&gt;A separeated api for searching products&lt;/p&gt;" style="text;html=1;whiteSpace=wrap;overflow=hidden;rounded=0;" vertex="1" parent="1">
          <mxGeometry x="-170" y="640" width="180" height="120" as="geometry" />
        </mxCell>
        <mxCell id="pyzMy5RGw5Bx7dP2U261-34" value="" style="endArrow=open;endSize=12;dashed=1;html=1;rounded=0;entryX=1.029;entryY=0.924;entryDx=0;entryDy=0;entryPerimeter=0;" edge="1" parent="1" source="pyzMy5RGw5Bx7dP2U261-28" target="pyzMy5RGw5Bx7dP2U261-19">
          <mxGeometry x="1" y="135" width="160" relative="1" as="geometry">
            <mxPoint x="470" y="370" as="sourcePoint" />
            <mxPoint x="280" y="533" as="targetPoint" />
            <mxPoint x="-18" y="14" as="offset" />
          </mxGeometry>
        </mxCell>
        <mxCell id="pyzMy5RGw5Bx7dP2U261-35" value="elastic search" style="shape=datastore;whiteSpace=wrap;html=1;" vertex="1" parent="1">
          <mxGeometry x="160" y="700" width="60" height="60" as="geometry" />
        </mxCell>
        <mxCell id="pyzMy5RGw5Bx7dP2U261-36" value="Use" style="endArrow=open;endSize=12;dashed=1;html=1;rounded=0;exitX=0.588;exitY=1.015;exitDx=0;exitDy=0;exitPerimeter=0;entryX=0.495;entryY=-0.071;entryDx=0;entryDy=0;entryPerimeter=0;" edge="1" parent="1" source="pyzMy5RGw5Bx7dP2U261-25" target="pyzMy5RGw5Bx7dP2U261-35">
          <mxGeometry width="160" relative="1" as="geometry">
            <mxPoint x="300" y="597" as="sourcePoint" />
            <mxPoint x="110" y="760" as="targetPoint" />
          </mxGeometry>
        </mxCell>
        <mxCell id="pyzMy5RGw5Bx7dP2U261-37" value="&lt;h1 style=&quot;margin-top: 0px;&quot;&gt;search db&lt;/h1&gt;&lt;p&gt;this text search engine is updated by the inventory&lt;/p&gt;&lt;p&gt;it send only few data about the products&lt;/p&gt;" style="text;html=1;whiteSpace=wrap;overflow=hidden;rounded=0;" vertex="1" parent="1">
          <mxGeometry x="290" y="680" width="180" height="120" as="geometry" />
        </mxCell>
        <mxCell id="pyzMy5RGw5Bx7dP2U261-38" style="edgeStyle=orthogonalEdgeStyle;rounded=0;orthogonalLoop=1;jettySize=auto;html=1;entryX=-0.003;entryY=0.374;entryDx=0;entryDy=0;entryPerimeter=0;" edge="1" parent="1" source="pyzMy5RGw5Bx7dP2U261-35" target="pyzMy5RGw5Bx7dP2U261-37">
          <mxGeometry relative="1" as="geometry" />
        </mxCell>
        <mxCell id="pyzMy5RGw5Bx7dP2U261-39" value="Inventory" style="shape=umlFrame;whiteSpace=wrap;html=1;pointerEvents=0;" vertex="1" parent="1">
          <mxGeometry x="-460" y="160" width="300" height="200" as="geometry" />
        </mxCell>
      </root>
    </mxGraphModel>
  </diagram>
</mxfile>
